<svg xmlns="http://www.w3.org/2000/svg" width="242" height="242" viewBox="0 0 242 242">
  <g id="Group_17" data-name="Group 17" transform="translate(-1101 -1298)">
    <g id="Group_11" data-name="Group 11" transform="translate(978)">
      <g id="Ellipse_7" data-name="Ellipse 7" transform="translate(123 1298)" fill="none" stroke="#959595" stroke-width="5">
        <circle cx="121" cy="121" r="121" stroke="none"/>
        <circle cx="121" cy="121" r="118.5" fill="none"/>
      </g>
    </g>
    <g id="guarantee" transform="translate(1148.402 1352)">
      <path id="Path_17" data-name="Path 17" d="M18.049,67.1H45.488a3.049,3.049,0,0,0,0-6.1H18.049a3.049,3.049,0,0,0,0,6.1Z" transform="translate(5.244 27.268)" fill="#959595"/>
      <path id="Path_18" data-name="Path 18" d="M139.146,9H8.049A3.058,3.058,0,0,0,5,12.049v94.512a3.058,3.058,0,0,0,3.049,3.049H91.89v21.341A3.011,3.011,0,0,0,93.72,133.7a3.322,3.322,0,0,0,3.354-.61l10.061-10.061L117.2,133.085a3.01,3.01,0,0,0,2.134.915,1.833,1.833,0,0,0,1.22-.3,3.011,3.011,0,0,0,1.829-2.744V109.61h16.768a3.058,3.058,0,0,0,3.049-3.049V12.049A3.058,3.058,0,0,0,139.146,9ZM116.28,123.634l-7.012-7.012a2.947,2.947,0,0,0-4.268,0l-7.012,7.012V92.079a20.3,20.3,0,0,0,9.146,2.287,18.512,18.512,0,0,0,9.146-2.287Zm-9.146-35.366a13.72,13.72,0,1,1,13.72-13.72A13.662,13.662,0,0,1,107.134,88.268ZM136.1,103.512h-13.72V87.2a19.206,19.206,0,0,0,4.573-12.652A19.817,19.817,0,1,0,91.89,87.2v16.311H11.1V15.1h125Z" fill="#959595"/>
      <path id="Path_19" data-name="Path 19" d="M24.049,25.1h82.317a3.049,3.049,0,1,0,0-6.1H24.049a3.049,3.049,0,0,0,0,6.1Z" transform="translate(8.39 5.244)" fill="#959595"/>
      <path id="Path_20" data-name="Path 20" d="M89.976,29H32.049a3.049,3.049,0,0,0,0,6.1H89.976a3.049,3.049,0,1,0,0-6.1Z" transform="translate(12.585 10.488)" fill="#959595"/>
    </g>
  </g>
</svg>
