<svg xmlns="http://www.w3.org/2000/svg" width="242" height="242" viewBox="0 0 242 242">
  <g id="Group_14" data-name="Group 14" transform="translate(-449 -1298)">
    <g id="Group_9" data-name="Group 9" transform="translate(326)">
      <g id="Ellipse_7" data-name="Ellipse 7" transform="translate(123 1298)" fill="none" stroke="#959595" stroke-width="5">
        <circle cx="121" cy="121" r="121" stroke="none"/>
        <circle cx="121" cy="121" r="118.5" fill="none"/>
      </g>
    </g>
    <g id="delivery" transform="translate(484 1325)">
      <g id="Black" transform="translate(10.788 14.384)">
        <g id="Group_13" data-name="Group 13">
          <path id="Path_5" data-name="Path 5" d="M6.5,36.48l10.788,7.192L28.076,36.48V25.692L17.288,18.5,6.5,25.692Z" transform="translate(29.46 100.169)" fill="none" stroke="#959595" stroke-linejoin="round" stroke-miterlimit="10" stroke-width="7"/>
          <path id="Path_6" data-name="Path 6" d="M17.5,36.48l10.788,7.192L39.076,36.48V25.692L28.288,18.5,17.5,25.692Z" transform="translate(97.573 100.169)" fill="none" stroke="#959595" stroke-linejoin="round" stroke-miterlimit="10" stroke-width="7"/>
          <path id="Path_7" data-name="Path 7" d="M2.5,43.46v35.96H96V7.5H67.229" transform="translate(4.692 32.056)" fill="none" stroke="#959595" stroke-linecap="round" stroke-linejoin="round" stroke-miterlimit="10" stroke-width="7"/>
          <path id="Path_8" data-name="Path 8" d="M65.844,81.421h7.192V52.652L47.864,9.5H15.5" transform="translate(85.189 44.44)" fill="none" stroke="#959595" stroke-linecap="round" stroke-linejoin="round" stroke-miterlimit="10" stroke-width="7"/>
          <path id="Path_9" data-name="Path 9" d="M43.873,11.5H17.5V33.076H56.078" transform="translate(97.573 56.825)" fill="none" stroke="#959595" stroke-linecap="round" stroke-linejoin="round" stroke-miterlimit="10" stroke-width="7"/>
          <line id="Line_2" data-name="Line 2" x1="57.536" transform="translate(100.689 111.477)" fill="none" stroke="#959595" stroke-linecap="round" stroke-linejoin="round" stroke-miterlimit="10" stroke-width="7"/>
          <line id="Line_3" data-name="Line 3" x1="28.768" transform="translate(71.921 125.861)" fill="none" stroke="#959595" stroke-linecap="round" stroke-linejoin="round" stroke-miterlimit="10" stroke-width="7"/>
          <line id="Line_4" data-name="Line 4" x1="14.384" transform="translate(7.192 125.861)" fill="none" stroke="#959595" stroke-linecap="round" stroke-linejoin="round" stroke-miterlimit="10" stroke-width="7"/>
          <g id="Group_12" data-name="Group 12">
            <path id="Path_10" data-name="Path 10" d="M59.036,50.546,30.268,66.729,1.5,50.546V18.182L30.268,2,59.036,18.182Z" transform="translate(-1.5 -2)" fill="none" stroke="#959595" stroke-linecap="round" stroke-linejoin="round" stroke-miterlimit="10" stroke-width="7"/>
            <path id="Path_11" data-name="Path 11" d="M5.5,4.5V26.076H19.884" transform="translate(23.268 13.48)" fill="none" stroke="#959595" stroke-linecap="round" stroke-linejoin="round" stroke-miterlimit="10" stroke-width="7"/>
          </g>
        </g>
      </g>
      <g id="Frames-24px">
        <rect id="Rectangle_3" data-name="Rectangle 3" width="173" height="173" fill="none"/>
      </g>
    </g>
  </g>
</svg>
