<svg xmlns="http://www.w3.org/2000/svg" width="242" height="242" viewBox="0 0 242 242">
  <g id="Group_8" data-name="Group 8" transform="translate(-123 -1298)">
    <g id="Ellipse_7" data-name="Ellipse 7" transform="translate(123 1298)" fill="none" stroke="#959595" stroke-width="4">
      <circle cx="121" cy="121" r="121" stroke="none"/>
      <circle cx="121" cy="121" r="119" fill="none"/>
    </g>
    <g id="layer1" transform="translate(177.677 1036.938)">
      <path id="ellipse1017" d="M67.872,289.062a53.9,53.9,0,0,0-27.327,7.447,55.29,55.29,0,0,0-24.77,31.834h-.544A14.1,14.1,0,0,0,1.323,342.5v8.9A14.1,14.1,0,0,0,15.231,365.56H22.7a13.836,13.836,0,0,0,9.538-3.89,41.019,41.019,0,0,0,16.247,16.922c-.859.375-1.679.852-2.52,1.273-.428.206-.846.439-1.269.664a59.619,59.619,0,0,0-5.875,3.556c-.111.069-.234.138-.345.207a.138.138,0,0,0-.036.046,72.927,72.927,0,0,0-16.084,15.576A90.969,90.969,0,0,0,3.989,453.979v4.737H132.154v-4.737a90.969,90.969,0,0,0-18.369-54.065,72.838,72.838,0,0,0-16.066-15.576.141.141,0,0,1-.036-.046c-.106-.069-.22-.138-.326-.207a59.611,59.611,0,0,0-6-3.613c-.356-.183-.71-.371-1.07-.552-.873-.439-1.72-.938-2.611-1.326a41.043,41.043,0,0,0,16.175-16.774,13.685,13.685,0,0,0,9.32,3.742h7.471a14.162,14.162,0,0,0,13.981-14.157v-8.9a14.163,14.163,0,0,0-13.981-14.157h-.671A55.315,55.315,0,0,0,95.2,296.512a53.9,53.9,0,0,0-27.327-7.447Zm0,9.438a44.744,44.744,0,0,1,22.685,6.193c9.267,5.444,15.474,14.257,19.058,24.185a13.45,13.45,0,0,0-2.992,1.234A41.227,41.227,0,0,0,86.93,306.2c-.017-.009-.038-.009-.055-.019a39.565,39.565,0,0,0-5.1-2.34c-.843-.321-1.723-.545-2.593-.811A39.214,39.214,0,0,0,75.324,302a38.864,38.864,0,0,0-6.093-.627c-.395-.012-.763-.138-1.16-.138s-.741.115-1.124.115a38.313,38.313,0,0,0-6.183.646c-1.257.25-2.448.625-3.663.978-.958.287-1.922.545-2.847.9a39.758,39.758,0,0,0-4.9,2.247,2.193,2.193,0,0,0-.435.25,41.2,41.2,0,0,0-19.4,23.871,13.92,13.92,0,0,0-3.373-1.4c3.584-9.911,9.78-18.708,19.04-24.148A44.744,44.744,0,0,1,67.872,298.5Zm.2,12.221a30.239,30.239,0,0,1,6.347.646,1.37,1.37,0,0,1,.29.115,30.688,30.688,0,0,1,5.6,1.77c.191.068.355.206.544.287a31.258,31.258,0,0,1,4.715,2.6c.444.321.824.689,1.251,1.012a32.106,32.106,0,0,1,3.3,2.782c.67.673,1.223,1.458,1.831,2.193.664.8,1.374,1.553,1.958,2.416a31.7,31.7,0,0,1,2.285,4.129c.169.357.387.673.544,1.031a31.99,31.99,0,0,1,1.578,4.811c.1.366.244.712.326,1.088a33.053,33.053,0,0,1,.617,5.013c.02.321.08.632.091.959-.021.321-.091.621-.091.941v2.137c-.057.92-.141,1.834-.272,2.729-.144.953-.281,1.9-.508,2.839-.171.71-.4,1.39-.617,2.084-.059.183-.137.366-.2.552-12.932,6.651-16.411,8.256-29.749,9.028-6.653-.138-6.113,10.245.49,9.4,9.616-.557,9.993-1.255,19.866-4.42a30.9,30.9,0,0,1-19.765,7.595c-.147,0-.288-.046-.435-.046s-.275.046-.417.046a31.208,31.208,0,0,1-28.4-19.281,3.582,3.582,0,0,0-.163-.479,32.535,32.535,0,0,1-1.723-5.733,32.918,32.918,0,0,1-.617-6.322c0-17.674,13.947-31.908,31.316-31.908Zm-52.84,27.095H22.7a4.556,4.556,0,0,1,4.66,4.682v8.9c0,.046-.017.068-.018.138a4.477,4.477,0,0,1-.725,2.193,4.942,4.942,0,0,0-.29.628,4.523,4.523,0,0,1-3.627,1.786H15.231a4.6,4.6,0,0,1-4.66-4.738v-8.9a4.555,4.555,0,0,1,4.66-4.683Zm97.937,0h7.471a4.556,4.556,0,0,1,4.66,4.682v8.9a4.6,4.6,0,0,1-4.66,4.737h-7.471a4.581,4.581,0,0,1-3.228-1.271,4.274,4.274,0,0,0-.453-.868,4.474,4.474,0,0,1-.961-2.6v-5.032c0-.138,0-.321-.019-.479v-1.164c.036-.71.218-1.381.218-2.1,0-.183-.052-.357-.055-.518a4.61,4.61,0,0,1,2.738-3.963,4.9,4.9,0,0,1,1.76-.321ZM67.237,383.862c.285.006.548.115.834.115a4.913,4.913,0,0,0,.816-.115c1.212.023,2.812.138,4.678.357a41.89,41.89,0,0,1,12.82,4.239c-.134.584-.806,1.216-2.339,1.9-5.162,3.014-10.168,5.576-15.975,5.585-5.807-.009-10.487-3.089-15.341-6.1a7.09,7.09,0,0,1-2.267-1.734,40.283,40.283,0,0,1,16.773-4.239ZM40.618,394.424a39.99,39.99,0,0,0,54.907,0,65.684,65.684,0,0,1,10.934,11.263c9.119,11.975,13.695,27.97,14.8,43.539H14.886c1.1-15.57,5.7-31.564,14.815-43.539a65.708,65.708,0,0,1,10.916-11.263Z" transform="translate(0 0)" fill="#959595"/>
    </g>
  </g>
</svg>
